<svg width="33" height="32" viewBox="0 0 33 32" fill="none" xmlns="http://www.w3.org/2000/svg">
<g clip-path="url(#clip0_1128_6464)">
<path d="M29.8021 4.57498H28.2821V30.475H29.8021V4.57498Z" fill="#000001"/>
<path d="M28.2821 3.04498H26.7521V4.57498H28.2821V3.04498Z" fill="#000001"/>
<path d="M26.7521 1.52499H25.2321V3.04499H26.7521V1.52499Z" fill="#000001"/>
<path d="M26.7501 7.61498H25.2301V6.09998H23.7101V4.57498H22.1801V3.04498H3.9021V32H26.7501V7.61498ZM25.2301 30.475H5.4221V4.57498H19.1321V10.665H25.2321L25.2301 30.475Z" fill="#000001"/>
<path d="M25.2321 -0.00500488H5.42212V1.525H25.2321V-0.00500488Z" fill="#000001"/>
<path d="M22.182 25.905H8.47205V27.425H22.182V25.905Z" fill="#000001"/>
<path d="M22.182 19.805H8.47205V21.335H22.182V19.805Z" fill="#000001"/>
<path d="M22.182 13.715H8.47205V15.235H22.182V13.715Z" fill="#000001"/>
<path d="M14.562 7.61499H8.47205V9.14499H14.562V7.61499Z" fill="#000001"/>
</g>
<defs>
<clipPath id="clip0_1128_6464">
<rect width="32" height="32" fill="white" transform="translate(0.850098)"/>
</clipPath>
</defs>
</svg>
