<svg width="33" height="33" viewBox="0 0 33 33" fill="none" xmlns="http://www.w3.org/2000/svg">
<g clip-path="url(#clip0_1128_7061)">
<path d="M31.4104 22.1294H16.1704V20.6094H14.6504V28.2294H13.1204V31.2794H31.4104V29.7494H32.9304V20.6094H31.4104V22.1294ZM19.2204 28.2294H17.6904V23.6594H19.2204V28.2294ZM23.7904 26.7094H22.2704V23.6594H23.7904V26.7094ZM26.8404 26.7094H25.3104V23.6594H26.8404V26.7094ZM29.8804 28.2294H28.3604V23.6594H29.8804V28.2294Z" fill="#000001"/>
<path d="M31.4104 19.0894H28.3604V20.6094H31.4104V19.0894Z" fill="#000001"/>
<path d="M28.3604 17.5594H26.8404V19.0894H28.3604V17.5594Z" fill="#000001"/>
<path d="M28.3604 6.89941H26.8404V11.4694H28.3604V6.89941Z" fill="#000001"/>
<path d="M26.8404 11.4694H25.3104V17.5594H26.8404V11.4694Z" fill="#000001"/>
<path d="M25.3104 8.41943H22.2704V11.4694H25.3104V8.41943Z" fill="#000001"/>
<path d="M22.2704 11.4694H20.7404V17.5594H22.2704V11.4694Z" fill="#000001"/>
<path d="M26.8404 6.89943V5.36943H22.2704V3.84943H20.7404V6.89943H26.8404Z" fill="#000001"/>
<path d="M20.7404 17.5594H19.2204V19.0894H20.7404V17.5594Z" fill="#000001"/>
<path d="M20.7404 6.89941H19.2204V9.93941H17.6904V11.4694H20.7404V6.89941Z" fill="#000001"/>
<path d="M19.2204 19.0894H16.1704V20.6094H19.2204V19.0894Z" fill="#000001"/>
<path d="M16.1704 5.36943V3.84943H7.03041V5.36943H3.98041V6.89943H5.50041V8.41943H7.03041V9.93943H16.1704V8.41943H17.6904V6.89943H19.2204V5.36943H16.1704Z" fill="#000001"/>
<path d="M20.7404 2.32947H17.6904V3.84947H20.7404V2.32947Z" fill="#000001"/>
<path d="M5.50043 11.4694V12.9894H14.6504V14.5194H16.1704V12.9894H17.6904V11.4694H5.50043Z" fill="#000001"/>
<path d="M14.6504 14.5194H11.6004V16.0394H14.6504V14.5194Z" fill="#000001"/>
<path d="M11.6004 16.0394H8.55042V17.5594H11.6004V16.0394Z" fill="#000001"/>
<path d="M17.6904 0.799438H5.50043V2.32944H17.6904V0.799438Z" fill="#000001"/>
<path d="M13.1204 25.1794H5.50043V26.7094H13.1204V25.1794Z" fill="#000001"/>
<path d="M8.55041 17.5594H3.98041V19.0894H8.55041V17.5594Z" fill="#000001"/>
<path d="M5.50041 23.6594H3.98041V25.1794H5.50041V23.6594Z" fill="#000001"/>
<path d="M5.50041 9.93945H3.98041V11.4695H5.50041V9.93945Z" fill="#000001"/>
<path d="M5.50042 2.32947H2.46042V3.84947H5.50042V2.32947Z" fill="#000001"/>
<path d="M3.98042 22.1295H2.46042V23.6595H3.98042V22.1295Z" fill="#000001"/>
<path d="M2.46042 16.0394V9.93943H3.98042V8.41943H2.46042V3.84943H0.93042V22.1294H2.46042V17.5594H3.98042V16.0394H2.46042Z" fill="#000001"/>
</g>
<defs>
<clipPath id="clip0_1128_7061">
<rect width="32" height="32" fill="white" transform="translate(0.93042 0.0394287)"/>
</clipPath>
</defs>
</svg>
